<svg xmlns="http://www.w3.org/2000/svg" width="26" height="26" viewBox="0 0 26 26" fill="none">
	<path d="M6.5 6.50016C6.5 5.92553 6.72827 5.37443 7.1346 4.9681C7.54093 4.56177 8.09203 4.3335 8.66667 4.3335H17.3333C17.908 4.3335 18.4591 4.56177 18.8654 4.9681C19.2717 5.37443 19.5 5.92553 19.5 6.50016V10.8335C19.5 11.4081 19.2717 11.9592 18.8654 12.3656C18.4591 12.7719 17.908 13.0002 17.3333 13.0002H8.66667C8.09203 13.0002 7.54093 12.7719 7.1346 12.3656C6.72827 11.9592 6.5 11.4081 6.5 10.8335V6.50016Z" stroke="#4095F6" stroke-width="1.5" stroke-linecap="round" stroke-linejoin="round"/>
	<path d="M13 2.1665V4.33317" stroke="#4095F6" stroke-width="1.5" stroke-linecap="round" stroke-linejoin="round"/>
	<path d="M9.75 13V22.75" stroke="#4095F6" stroke-width="1.5" stroke-linecap="round" stroke-linejoin="round"/>
	<path d="M16.25 13V22.75" stroke="#4095F6" stroke-width="1.5" stroke-linecap="round" stroke-linejoin="round"/>
	<path d="M5.41675 17.3332L9.75008 15.1665" stroke="#4095F6" stroke-width="1.5" stroke-linecap="round" stroke-linejoin="round"/>
	<path d="M16.25 15.1665L20.5833 17.3332" stroke="#4095F6" stroke-width="1.5" stroke-linecap="round" stroke-linejoin="round"/>
	<path d="M9.75 19.5H16.25" stroke="#4095F6" stroke-width="1.5" stroke-linecap="round" stroke-linejoin="round"/>
	<path d="M10.8333 8.6665V8.6765" stroke="#4095F6" stroke-width="1.5" stroke-linecap="round" stroke-linejoin="round"/>
	<path d="M15.1667 8.6665V8.6765" stroke="#4095F6" stroke-width="1.5" stroke-linecap="round" stroke-linejoin="round"/>
</svg>