<svg xmlns="http://www.w3.org/2000/svg" width="26" height="26" viewBox="0 0 26 26" fill="none">
	<path d="M16.7917 14.0835C15.7861 14.0835 14.8216 14.483 14.1106 15.194C13.3995 15.9051 13 16.8696 13 17.8752V18.9585C13 19.9641 13.3995 20.9285 14.1106 21.6396C14.8216 22.3507 15.7861 22.7502 16.7917 22.7502C17.7973 22.7502 18.7617 22.3507 19.4728 21.6396C20.1839 20.9285 20.5833 19.9641 20.5833 18.9585V17.0085" stroke="#4095F6" stroke-width="1.5" stroke-linecap="round" stroke-linejoin="round"/>
	<path d="M9.20832 14.0835C10.2139 14.0835 11.1784 14.483 11.8894 15.194C12.6005 15.9051 13 16.8696 13 17.8752V18.9585C13 19.9641 12.6005 20.9285 11.8894 21.6396C11.1784 22.3507 10.2139 22.7502 9.20832 22.7502C8.20271 22.7502 7.23829 22.3507 6.52721 21.6396C5.81613 20.9285 5.41666 19.9641 5.41666 18.9585V17.0085" stroke="#4095F6" stroke-width="1.5" stroke-linecap="round" stroke-linejoin="round"/>
	<path d="M18.9583 17.3333C19.9639 17.3333 20.9284 16.9339 21.6394 16.2228C22.3505 15.5117 22.75 14.5473 22.75 13.5417C22.75 12.5361 22.3505 11.5716 21.6394 10.8606C20.9284 10.1495 19.9639 9.75 18.9583 9.75H18.4167" stroke="#4095F6" stroke-width="1.5" stroke-linecap="round" stroke-linejoin="round"/>
	<path d="M20.5833 10.075V7.04167C20.5833 6.03605 20.1839 5.07163 19.4728 4.36055C18.7617 3.64948 17.7973 3.25 16.7917 3.25C15.7861 3.25 14.8216 3.64948 14.1106 4.36055C13.3995 5.07163 13 6.03605 13 7.04167" stroke="#4095F6" stroke-width="1.5" stroke-linecap="round" stroke-linejoin="round"/>
	<path d="M7.04167 17.3333C6.03605 17.3333 5.07163 16.9339 4.36055 16.2228C3.64948 15.5117 3.25 14.5473 3.25 13.5417C3.25 12.5361 3.64948 11.5716 4.36055 10.8606C5.07163 10.1495 6.03605 9.75 7.04167 9.75H7.58333" stroke="#4095F6" stroke-width="1.5" stroke-linecap="round" stroke-linejoin="round"/>
	<path d="M5.41666 10.075V7.04167C5.41666 6.03605 5.81613 5.07163 6.52721 4.36055C7.23829 3.64948 8.20271 3.25 9.20832 3.25C10.2139 3.25 11.1784 3.64948 11.8894 4.36055C12.6005 5.07163 13 6.03605 13 7.04167V17.875" stroke="#4095F6" stroke-width="1.5" stroke-linecap="round" stroke-linejoin="round"/>
</svg>