<svg xmlns="http://www.w3.org/2000/svg" width="26" height="26" viewBox="0 0 26 26" fill="none">
	<path d="M3.25 13C3.25 14.2804 3.50219 15.5482 3.99217 16.7312C4.48216 17.9141 5.20034 18.9889 6.10571 19.8943C7.01108 20.7997 8.08591 21.5178 9.26884 22.0078C10.4518 22.4978 11.7196 22.75 13 22.75C14.2804 22.75 15.5482 22.4978 16.7312 22.0078C17.9141 21.5178 18.9889 20.7997 19.8943 19.8943C20.7997 18.9889 21.5178 17.9141 22.0078 16.7312C22.4978 15.5482 22.75 14.2804 22.75 13C22.75 11.7196 22.4978 10.4518 22.0078 9.26884C21.5178 8.08591 20.7997 7.01108 19.8943 6.10571C18.9889 5.20034 17.9141 4.48216 16.7312 3.99217C15.5482 3.50219 14.2804 3.25 13 3.25C11.7196 3.25 10.4518 3.50219 9.26884 3.99217C8.08591 4.48216 7.01108 5.20034 6.10571 6.10571C5.20034 7.01108 4.48216 8.08591 3.99217 9.26884C3.50219 10.4518 3.25 11.7196 3.25 13Z" stroke="#4095F6" stroke-width="1.5" stroke-linecap="round" stroke-linejoin="round"/>
	<path d="M16.0333 9.75009C15.8371 9.40966 15.552 9.12902 15.2085 8.93819C14.865 8.74736 14.4761 8.65353 14.0833 8.66675H11.9167C11.342 8.66675 10.7909 8.89503 10.3846 9.30136C9.97827 9.70769 9.75 10.2588 9.75 10.8334C9.75 11.4081 9.97827 11.9592 10.3846 12.3655C10.7909 12.7718 11.342 13.0001 11.9167 13.0001H14.0833C14.658 13.0001 15.2091 13.2284 15.6154 13.6347C16.0217 14.041 16.25 14.5921 16.25 15.1668C16.25 15.7414 16.0217 16.2925 15.6154 16.6988C15.2091 17.1051 14.658 17.3334 14.0833 17.3334H11.9167C11.5239 17.3466 11.135 17.2528 10.7915 17.062C10.448 16.8712 10.1629 16.5905 9.96667 16.2501" stroke="#4095F6" stroke-width="1.5" stroke-linecap="round" stroke-linejoin="round"/>
	<path d="M13 7.5835V18.4168" stroke="#4095F6" stroke-width="1.5" stroke-linecap="round" stroke-linejoin="round"/>
</svg>