<svg width="218" height="180" viewBox="0 0 218 180" fill="none" xmlns="http://www.w3.org/2000/svg">
<path d="M195.889 79.896C185.346 123.696 143.755 162.3 108.669 180C73.5794 162.3 31.988 123.696 21.4478 79.896C14.3999 50.577 16.8992 19.434 21.3188 0H196.019C200.438 19.434 202.934 50.577 195.889 79.896Z" fill="#002E47"/>
<path d="M108.669 173.614L108.288 173.41C90.715 164.035 73.2136 150.319 59.0128 134.785C42.571 116.8 31.4875 97.3597 26.9659 78.5708C21.7783 56.9858 21.3432 29.9828 25.7988 6.33673L25.9248 5.67676H191.413L191.539 6.33673C195.998 29.9828 195.56 56.9858 190.372 78.5708C185.851 97.3597 174.767 116.797 158.325 134.782C144.125 150.316 126.623 164.032 109.05 173.407L108.669 173.611V173.614ZM27.269 7.29673C22.9844 30.5708 23.4525 57.0188 28.5411 78.1898C32.9998 96.7118 43.951 115.906 60.2071 133.687C74.1829 148.975 91.381 162.487 108.666 171.772C125.951 162.487 143.146 148.975 157.125 133.687C173.384 115.903 184.333 96.7118 188.791 78.1898C193.88 57.0158 194.348 30.5678 190.063 7.29376H27.269V7.29673Z" fill="white"/>
<path d="M0 99.7551L11.2364 64.0791H37.3065L26.0702 99.7551H0Z" fill="#E54747"/>
<g opacity="0.4">
<path d="M10.5352 107.868L21.7746 72.192L37.3014 64.083L26.0651 99.759L10.5352 107.868Z" fill="#002E47"/>
</g>
<path d="M217.32 80.2939L206.084 115.97H180.014L191.25 80.2939H217.32Z" fill="#E54747"/>
<g opacity="0.4">
<path d="M206.78 72.1914L195.54 107.867L180.014 115.973L191.25 80.2974L206.78 72.1914Z" fill="#002E47"/>
</g>
<path d="M206.783 72.1914L195.544 107.867H10.541L21.7804 72.1914H206.783Z" fill="#FF9D28"/>
<path d="M52.5112 93.7232C52.2742 95.6522 51.4522 97.1522 50.0449 98.2262C48.6346 99.3002 46.7866 99.8372 44.5033 99.8372C43.546 99.8372 42.655 99.7292 41.83 99.5162C41.0047 99.3032 40.3087 98.9942 39.7417 98.5832L40.2997 94.0202C40.9747 94.4792 41.764 94.8662 42.667 95.1782C43.573 95.4932 44.4073 95.6492 45.1723 95.6492C45.8143 95.6492 46.3183 95.5142 46.6816 95.2442C47.0446 94.9742 47.2576 94.5932 47.3176 94.0952C47.3476 93.8612 47.3176 93.6422 47.2426 93.4382C47.1676 93.2342 47.0386 93.0302 46.8736 92.8262C46.7086 92.6222 46.2493 92.1722 45.4993 91.4762C44.5813 90.6602 43.945 89.8232 43.588 88.9742C43.231 88.1222 43.114 87.1892 43.24 86.1722C43.378 85.0322 43.789 84.0092 44.4703 83.1032C45.1513 82.1942 46.0423 81.4892 47.1406 80.9912C48.2416 80.4902 49.4329 80.2412 50.7199 80.2412C52.7962 80.2412 54.6085 80.7062 56.1568 81.6362L53.9215 85.5062C52.5292 84.7412 51.3112 84.3602 50.2669 84.3602C49.7119 84.3602 49.2679 84.4832 48.9379 84.7262C48.6076 84.9692 48.4156 85.3262 48.3556 85.7942C48.3046 86.2202 48.4006 86.6192 48.6466 86.9852C48.8926 87.3542 49.3849 87.8492 50.1289 88.4642C51.0619 89.2202 51.7252 90.0152 52.1182 90.8492C52.5112 91.6832 52.6432 92.6402 52.5112 93.7172V93.7232Z" fill="#002E47"/>
<path d="M68.2768 99.5757H63.1792L65.7595 91.8057H61.2469L58.6396 99.5757H53.542L59.9026 80.5137H65.0002L62.6749 87.5787H67.2115L69.5368 80.5137H74.6494L68.2738 99.5757H68.2768Z" fill="#002E47"/>
<path d="M85.7183 80.2139C87.9776 80.2139 89.658 80.8589 90.756 82.1489C91.8543 83.4389 92.2623 85.2419 91.9803 87.5519C91.6983 89.8649 91.0079 91.9769 89.9069 93.8939C88.8087 95.8109 87.4347 97.2779 85.7874 98.3009C84.1401 99.3239 82.3131 99.8339 80.3058 99.8339C77.9685 99.8339 76.2402 99.1859 75.1272 97.8899C74.0109 96.5939 73.5939 94.7969 73.8759 92.4929C74.1579 90.1889 74.8632 88.0739 75.9942 86.1449C77.1255 84.2159 78.5234 82.7429 80.1917 81.7319C81.86 80.7209 83.699 80.2139 85.7183 80.2139ZM86.8226 87.6059C86.9426 86.6159 86.8287 85.8389 86.4804 85.2779C86.1324 84.7169 85.5623 84.4379 84.7703 84.4379C83.909 84.4379 83.075 84.8039 82.262 85.5329C81.4517 86.2619 80.7528 87.2669 80.1648 88.5449C79.5768 89.8229 79.2014 91.1309 79.0394 92.4689C78.7814 94.5719 79.5228 95.6249 81.2628 95.6249C82.0881 95.6249 82.901 95.2649 83.696 94.5419C84.4913 93.8189 85.1694 92.8469 85.7214 91.6229C86.2764 90.3989 86.6427 89.0579 86.8197 87.6089H86.8226V87.6059Z" fill="#002E47"/>
<path d="M98.6294 92.6397L96.3071 99.5757H91.2095L97.5704 80.5137H102.617C104.807 80.5137 106.431 80.9487 107.49 81.8187C108.549 82.6887 108.969 83.9967 108.756 85.7427C108.591 87.0987 108.138 88.2807 107.397 89.2887C106.656 90.2967 105.644 91.0677 104.363 91.5957L106.668 99.5757H101.438L99.5807 92.6397H98.6294ZM99.9257 88.7667H100.592C101.417 88.7667 102.104 88.5297 102.647 88.0557C103.193 87.5817 103.517 86.9187 103.619 86.0667C103.685 85.5267 103.586 85.1157 103.319 84.8337C103.052 84.5517 102.635 84.4107 102.062 84.4107H101.372L99.9257 88.7637V88.7667Z" fill="#002E47"/>
<path d="M115.408 99.5757H110.31L115.216 84.7257H111.081L112.497 80.5137H125.903L124.463 84.7257H120.316L115.411 99.5757H115.408Z" fill="#002E47"/>
<path d="M122.396 99.5757L128.757 80.5137H133.854L128.889 95.4147H134.947L133.551 99.5727H122.396V99.5757Z" fill="#002E47"/>
<path d="M136.273 99.5757L142.634 80.5137H147.809L141.449 99.5757H136.273Z" fill="#002E47"/>
<path d="M158.271 93.7232C158.034 95.6522 157.212 97.1522 155.805 98.2262C154.395 99.3002 152.547 99.8372 150.264 99.8372C149.306 99.8372 148.415 99.7292 147.59 99.5162C146.765 99.3032 146.069 98.9942 145.502 98.5832L146.06 94.0202C146.735 94.4792 147.524 94.8662 148.427 95.1782C149.333 95.4932 150.168 95.6492 150.933 95.6492C151.575 95.6492 152.079 95.5142 152.442 95.2442C152.805 94.9742 153.018 94.5932 153.078 94.0952C153.108 93.8612 153.081 93.6422 153.003 93.4382C152.925 93.2342 152.799 93.0302 152.634 92.8262C152.469 92.6222 152.01 92.1722 151.26 91.4762C150.342 90.6602 149.706 89.8232 149.348 88.9742C148.991 88.1222 148.874 87.1892 149 86.1722C149.138 85.0322 149.55 84.0092 150.231 83.1032C150.912 82.1942 151.803 81.4892 152.901 80.9912C154.002 80.4902 155.193 80.2412 156.48 80.2412C158.556 80.2412 160.369 80.7062 161.917 81.6362L159.682 85.5062C158.289 84.7412 157.071 84.3602 156.027 84.3602C155.472 84.3602 155.028 84.4832 154.698 84.7262C154.368 84.9692 154.176 85.3262 154.116 85.7942C154.065 86.2202 154.161 86.6192 154.407 86.9852C154.653 87.3542 155.145 87.8492 155.889 88.4642C156.822 89.2202 157.485 90.0152 157.878 90.8492C158.271 91.6832 158.403 92.6402 158.271 93.7172V93.7232Z" fill="#002E47"/>
<path d="M167.088 99.5757H161.991L166.896 84.7257H162.762L164.178 80.5137H177.584L176.144 84.7257H171.997L167.091 99.5757H167.088Z" fill="#002E47"/>
<path d="M31.9053 34.9082L45.8268 34.9112H54.291V26.4033L31.9053 34.9082Z" fill="#FF9D28"/>
<path d="M54.2974 26.4047V56.4438L64.8709 22.3877L54.2974 26.4047Z" fill="#68C5ED"/>
<path d="M54.2894 34.9121H45.8252L54.2894 56.4431V34.9121Z" fill="#044D80"/>
<path d="M31.9053 34.9062L47.9961 40.4322L45.8268 34.9092L31.9053 34.9062Z" fill="#E54747"/>
<path d="M83.1896 48.5328C83.0666 48.6558 82.8626 48.8118 82.5776 48.9978C82.2926 49.1838 81.9176 49.3698 81.4586 49.5588C80.9996 49.7448 80.4353 49.9068 79.7723 50.0418C79.1063 50.1768 78.347 50.2428 77.489 50.2428C75.8327 50.2428 74.4017 49.9728 73.1954 49.4328C71.9894 48.8928 70.9931 48.1428 70.2071 47.1768C69.4211 46.2108 68.8418 45.0708 68.4758 43.7538C68.1068 42.4368 67.9238 40.9908 67.9238 39.4158C67.9238 37.8408 68.1218 36.3828 68.5208 35.0448C68.9198 33.7068 69.5171 32.5518 70.3151 31.5768C71.1131 30.6018 72.1094 29.8398 73.3034 29.2908C74.5007 28.7418 75.9047 28.4658 77.519 28.4658C78.317 28.4658 79.0373 28.5378 79.6793 28.6848C80.3243 28.8288 80.8853 28.9998 81.3656 29.1978C81.8456 29.3958 82.2446 29.6028 82.5626 29.8188C82.8806 30.0378 83.1206 30.2178 83.2826 30.3618C83.4659 30.5268 83.6249 30.7248 83.7569 30.9528C83.8889 31.1808 83.9549 31.4298 83.9549 31.6998C83.9549 32.1138 83.8019 32.5308 83.4959 32.9448C83.1896 33.3588 82.8506 33.7428 82.4846 34.0968C82.2386 33.8478 81.9626 33.5958 81.6566 33.3348C81.3506 33.0768 81.0086 32.8488 80.6303 32.6508C80.2523 32.4528 79.8233 32.2878 79.3433 32.1528C78.8633 32.0178 78.326 31.9518 77.732 31.9518C76.691 31.9518 75.8147 32.1648 75.1097 32.5908C74.4047 33.0168 73.8377 33.5718 73.4084 34.2558C72.9794 34.9398 72.6734 35.7228 72.4874 36.6048C72.3044 37.4868 72.2114 38.3838 72.2114 39.2958C72.2114 40.2708 72.3044 41.2038 72.4874 42.0948C72.6704 42.9858 72.9884 43.7748 73.4384 44.4588C73.8887 45.1428 74.4767 45.6918 75.2027 46.1088C75.9287 46.5228 76.832 46.7298 77.915 46.7298C78.488 46.7298 79.0133 46.6578 79.4933 46.5108C79.9733 46.3668 80.3963 46.1898 80.7653 45.9828C81.1346 45.7758 81.4556 45.5598 81.7316 45.3288C82.0076 45.1008 82.2386 44.9028 82.4216 44.7378C82.5446 44.8818 82.6856 45.0588 82.8506 45.2658C83.0126 45.4728 83.1686 45.6918 83.3096 45.9198C83.4539 46.1478 83.5769 46.3758 83.6789 46.6038C83.7809 46.8318 83.8319 47.0388 83.8319 47.2248C83.8319 47.4948 83.7809 47.7228 83.6789 47.9088C83.5769 48.0948 83.4119 48.3018 83.1866 48.5298" fill="white"/>
<path d="M98.9905 46.1491C98.9905 47.7961 99.2275 48.9961 99.6985 49.7491C99.3295 49.8961 98.9845 49.9981 98.6665 50.0611C98.3482 50.1241 98.0122 50.1541 97.6642 50.1541C96.9232 50.1541 96.3622 50.0071 95.9839 49.7161C95.6029 49.4251 95.3629 49.0081 95.2579 48.4651C94.8049 48.9451 94.2079 49.3531 93.4696 49.6861C92.7286 50.0191 91.8256 50.1871 90.7543 50.1871C90.1993 50.1871 89.6443 50.1091 89.0893 49.9531C88.534 49.7971 88.03 49.5421 87.577 49.1881C87.124 48.8341 86.755 48.3601 86.4667 47.7691C86.1787 47.1751 86.0347 46.4551 86.0347 45.6001C86.0347 44.5381 86.2867 43.6771 86.791 43.0111C87.295 42.3451 87.928 41.8201 88.687 41.4361C89.4493 41.0521 90.2713 40.7881 91.1563 40.6411C92.0416 40.4941 92.8516 40.4011 93.5926 40.3591C93.8386 40.3381 94.0819 40.3291 94.3189 40.3291H94.9819V39.7591C94.9819 38.9581 94.7719 38.3881 94.3489 38.0491C93.9259 37.7131 93.2416 37.5421 92.2966 37.5421C91.4113 37.5421 90.6253 37.6891 89.9383 37.9801C89.2483 38.2711 88.576 38.6071 87.919 38.9821C87.631 38.6281 87.4 38.2351 87.226 37.8091C87.052 37.3831 86.965 37.0621 86.965 36.8551C86.965 36.5641 87.124 36.2821 87.442 36.0091C87.76 35.7391 88.198 35.4931 88.753 35.2741C89.3083 35.0551 89.9443 34.8781 90.6643 34.7431C91.3843 34.6081 92.1436 34.5391 92.9476 34.5391C94.0579 34.5391 94.9999 34.6531 95.7709 34.8841C96.5422 35.1151 97.1692 35.4691 97.6522 35.9491C98.1352 36.4291 98.4802 37.0291 98.6845 37.7491C98.8885 38.4691 98.9935 39.3091 98.9935 40.2691V46.1521L98.9905 46.1491ZM95.0419 42.5191H94.6099C94.4659 42.5191 94.3219 42.5311 94.1779 42.5491C93.6646 42.5911 93.1546 42.6541 92.6506 42.7381C92.1466 42.8221 91.6996 42.9691 91.3093 43.1761C90.9193 43.3861 90.6013 43.6561 90.3523 43.9891C90.1063 44.3221 89.9833 44.7511 89.9833 45.2731C89.9833 45.8581 90.1483 46.3531 90.4753 46.7581C90.8053 47.1661 91.3603 47.3671 92.1406 47.3671C92.5306 47.3671 92.9026 47.3161 93.2506 47.2111C93.5986 47.1061 93.9079 46.9711 94.1749 46.8031C94.4419 46.6351 94.6519 46.4551 94.8079 46.2541C94.9609 46.0561 95.0389 45.8731 95.0389 45.7081V42.5161H95.0419V42.5191Z" fill="white"/>
<path d="M106.668 36.3541C106.995 35.9581 107.508 35.5561 108.204 35.1481C108.9 34.7401 109.782 34.5391 110.847 34.5391C111.606 34.5391 112.329 34.6681 113.016 34.9291C113.703 35.1901 114.312 35.6131 114.846 36.1951C115.38 36.7801 115.803 37.5511 116.122 38.5111C116.44 39.4711 116.599 40.6501 116.599 42.0481C116.599 43.6741 116.413 45.0151 116.043 46.0681C115.674 47.1211 115.197 47.9551 114.615 48.5731C114.03 49.1881 113.379 49.6201 112.662 49.8721C111.945 50.1211 111.228 50.2471 110.511 50.2471C109.917 50.2471 109.398 50.1781 108.957 50.0431C108.516 49.9081 108.141 49.7551 107.835 49.5901C107.529 49.4221 107.292 49.2571 107.127 49.0891C106.962 48.9211 106.86 48.8071 106.821 48.7441V56.4361H102.626V34.9741C102.728 34.9531 102.854 34.9321 102.998 34.9111C103.124 34.8901 103.268 34.8751 103.433 34.8631C103.598 34.8541 103.796 34.8481 104.024 34.8481C104.708 34.8481 105.287 34.9621 105.764 35.1931C106.241 35.4241 106.542 35.8081 106.668 36.3511M112.221 42.1411C112.221 41.5141 112.17 40.9321 112.068 40.3891C111.966 39.8461 111.798 39.3781 111.561 38.9821C111.327 38.5861 111.009 38.2771 110.61 38.0581C110.211 37.8391 109.725 37.7311 109.155 37.7311C108.297 37.7311 107.697 37.8991 107.361 38.2321C107.025 38.5651 106.854 38.9311 106.854 39.3271V45.9631C107.016 46.1311 107.307 46.3291 107.727 46.5571C108.147 46.7881 108.633 46.9021 109.185 46.9021C110.229 46.9021 110.994 46.4851 111.486 45.6511C111.978 44.8171 112.221 43.6471 112.221 42.1471" fill="white"/>
<path d="M119.838 47.5245C119.694 47.1075 119.601 46.6695 119.559 46.2105C119.517 45.7515 119.496 45.2925 119.496 44.8335V30.3135C119.64 30.2925 119.793 30.2715 119.958 30.2505C120.102 30.2295 120.255 30.2145 120.42 30.2025C120.585 30.1935 120.75 30.1875 120.912 30.1875C121.242 30.1875 121.569 30.2175 121.899 30.2805C122.229 30.3435 122.526 30.4695 122.793 30.6555C123.06 30.8445 123.276 31.0995 123.441 31.4235C123.606 31.7475 123.687 32.1705 123.687 32.6895V34.9125H128.005V38.0745H123.687V44.7495C123.687 46.2045 124.272 46.9335 125.446 46.9335C125.734 46.9335 126.007 46.8855 126.262 46.7925C126.52 46.6995 126.751 46.5945 126.955 46.4805C127.159 46.3665 127.342 46.2465 127.495 46.1205C127.648 45.9945 127.756 45.9015 127.819 45.8385C128.128 46.2975 128.365 46.6965 128.527 47.0295C128.692 47.3655 128.773 47.6805 128.773 47.9745C128.773 48.2475 128.665 48.5175 128.449 48.7815C128.233 49.0455 127.93 49.2885 127.54 49.5075C127.15 49.7295 126.676 49.9065 126.121 50.0445C125.566 50.1825 124.96 50.2515 124.299 50.2515C123.024 50.2515 122.031 49.9995 121.323 49.5015C120.615 49.0005 120.114 48.3435 119.826 47.5305" fill="white"/>
<path d="M138.643 47.1181C139.159 47.1181 139.612 47.0611 140.006 46.9471C140.399 46.8331 140.75 46.6921 141.059 46.5241C141.368 46.3561 141.638 46.1761 141.863 45.9751C142.091 45.7771 142.295 45.5941 142.481 45.4261C142.727 45.7381 142.985 46.1401 143.255 46.6321C143.522 47.1241 143.657 47.5231 143.657 47.8381C143.657 48.2971 143.399 48.7141 142.886 49.0891C142.454 49.4221 141.842 49.7101 141.05 49.9501C140.258 50.1901 139.327 50.3101 138.259 50.3101C137.293 50.3101 136.342 50.1841 135.406 49.9351C134.47 49.6861 133.636 49.2481 132.907 48.6211C132.178 47.9941 131.587 47.1571 131.134 46.1011C130.681 45.0481 130.456 43.7191 130.456 42.1111C130.456 40.7971 130.657 39.6661 131.056 38.7151C131.458 37.7671 131.992 36.9781 132.661 36.3511C133.33 35.7241 134.083 35.2651 134.929 34.9741C135.772 34.6831 136.636 34.5361 137.521 34.5361C138.673 34.5361 139.648 34.7191 140.453 35.0851C141.254 35.4511 141.908 35.9401 142.412 36.5551C142.916 37.1701 143.279 37.8751 143.507 38.6671C143.732 39.4591 143.846 40.2931 143.846 41.1721V41.6101C143.846 41.7781 143.84 41.9551 143.831 42.1411C143.822 42.3301 143.81 42.5131 143.801 42.6901C143.789 42.8671 143.774 43.0081 143.756 43.1131H134.656C134.737 44.2621 135.088 45.2161 135.709 45.9781C136.327 46.7401 137.308 47.1211 138.649 47.1211M140.057 40.7671C140.057 39.7651 139.864 38.9521 139.483 38.3251C139.099 37.6981 138.412 37.3861 137.419 37.3861C136.57 37.3861 135.895 37.6831 135.388 38.2771C134.881 38.8711 134.629 39.7021 134.629 40.7641H140.06H140.057V40.7671Z" fill="white"/>
<path d="M151.14 36.4321C151.263 36.2461 151.428 36.0391 151.633 35.8111C151.837 35.5831 152.089 35.3761 152.389 35.1901C152.686 35.0041 153.016 34.8481 153.376 34.7251C153.736 34.6021 154.12 34.5391 154.534 34.5391C154.78 34.5391 155.044 34.5601 155.32 34.6021C155.599 34.6441 155.854 34.7221 156.091 34.8361C156.328 34.9501 156.517 35.1061 156.661 35.3011C156.805 35.4991 156.877 35.7421 156.877 36.0301C156.877 36.4861 156.763 37.0081 156.538 37.5991C156.31 38.1901 156.085 38.6941 155.86 39.1111C155.509 38.8201 155.161 38.5951 154.81 38.4391C154.459 38.2831 154.048 38.2051 153.577 38.2051C152.941 38.2051 152.404 38.3941 151.972 38.7691C151.539 39.1471 151.323 39.5941 151.323 40.1191V50.2501H147.129V34.9801C147.231 34.9591 147.354 34.9381 147.498 34.9171C147.621 34.8961 147.765 34.8811 147.93 34.8691C148.095 34.8601 148.29 34.8541 148.515 34.8541C149.172 34.8541 149.742 34.9831 150.228 35.2411C150.711 35.4991 151.014 35.8981 151.137 36.4351" fill="white"/>
<path d="M163.066 36.4321C163.189 36.2461 163.354 36.0391 163.561 35.8111C163.765 35.5831 164.017 35.3761 164.317 35.1901C164.614 35.0041 164.944 34.8481 165.304 34.7251C165.664 34.6021 166.048 34.5391 166.462 34.5391C166.708 34.5391 166.972 34.5601 167.248 34.6021C167.527 34.6441 167.782 34.7221 168.019 34.8361C168.256 34.9501 168.445 35.1061 168.589 35.3011C168.733 35.4991 168.806 35.7421 168.806 36.0301C168.806 36.4861 168.691 37.0081 168.466 37.5991C168.238 38.1901 168.013 38.6941 167.788 39.1111C167.437 38.8201 167.089 38.5951 166.738 38.4391C166.387 38.2831 165.976 38.2051 165.505 38.2051C164.869 38.2051 164.332 38.3941 163.9 38.7691C163.468 39.1471 163.252 39.5941 163.252 40.1191V50.2501H159.057V34.9801C159.159 34.9591 159.282 34.9381 159.426 34.9171C159.549 34.8961 159.693 34.8811 159.858 34.8691C160.023 34.8601 160.218 34.8541 160.443 34.8541C161.1 34.8541 161.674 34.9831 162.157 35.2411C162.64 35.4991 162.943 35.8981 163.066 36.4351" fill="white"/>
<path d="M183.092 46.1491C183.092 47.7961 183.33 48.9961 183.801 49.7491C183.432 49.8961 183.086 49.9981 182.768 50.0611C182.45 50.1241 182.114 50.1541 181.766 50.1541C181.025 50.1541 180.464 50.0071 180.086 49.7161C179.705 49.4251 179.465 49.0081 179.36 48.4651C178.907 48.9451 178.31 49.3531 177.572 49.6861C176.831 50.0191 175.927 50.1871 174.856 50.1871C174.301 50.1871 173.746 50.1091 173.191 49.9531C172.636 49.7971 172.132 49.5421 171.679 49.1881C171.226 48.8341 170.857 48.3601 170.569 47.7691C170.281 47.1751 170.137 46.4551 170.137 45.6001C170.137 44.5381 170.389 43.6771 170.893 43.0111C171.397 42.3451 172.03 41.8201 172.789 41.4361C173.548 41.0521 174.373 40.7881 175.255 40.6411C176.141 40.4941 176.951 40.4011 177.692 40.3591C177.938 40.3381 178.181 40.3291 178.418 40.3291H179.081V39.7591C179.081 38.9581 178.871 38.3881 178.448 38.0491C178.025 37.7131 177.341 37.5421 176.396 37.5421C175.51 37.5421 174.724 37.6891 174.037 37.9801C173.347 38.2711 172.675 38.6071 172.018 38.9821C171.73 38.6281 171.499 38.2351 171.325 37.8091C171.151 37.3831 171.064 37.0621 171.064 36.8551C171.064 36.5641 171.223 36.2821 171.541 36.0091C171.859 35.7391 172.297 35.4931 172.852 35.2741C173.407 35.0551 174.043 34.8781 174.763 34.7431C175.483 34.6081 176.246 34.5391 177.047 34.5391C178.157 34.5391 179.099 34.6531 179.87 34.8841C180.641 35.1151 181.268 35.4691 181.751 35.9491C182.234 36.4291 182.579 37.0291 182.783 37.7491C182.987 38.4691 183.092 39.3091 183.092 40.2691V46.1521V46.1491ZM179.144 42.5191H178.712C178.568 42.5191 178.424 42.5311 178.28 42.5491C177.767 42.5911 177.257 42.6541 176.753 42.7381C176.249 42.8221 175.801 42.9691 175.411 43.1761C175.021 43.3861 174.703 43.6561 174.454 43.9891C174.208 44.3221 174.085 44.7511 174.085 45.2731C174.085 45.8581 174.25 46.3531 174.58 46.7581C174.91 47.1661 175.465 47.3671 176.246 47.3671C176.636 47.3671 177.008 47.3161 177.356 47.2111C177.704 47.1061 178.013 46.9711 178.28 46.8031C178.547 46.6351 178.757 46.4551 178.913 46.2541C179.066 46.0561 179.144 45.8731 179.144 45.7081V42.5161V42.5191Z" fill="white"/>
<path d="M95.9385 137.303H84.8643V134.972L88.8405 130.949C90.0192 129.743 90.7866 128.906 91.1496 128.438C91.5093 127.973 91.7703 127.541 91.9293 127.142C92.0883 126.746 92.166 126.332 92.166 125.906C92.166 125.27 91.9923 124.796 91.6413 124.487C91.2906 124.175 90.8226 124.022 90.2379 124.022C89.6232 124.022 89.0265 124.163 88.4508 124.445C87.8721 124.727 87.2694 125.129 86.6427 125.648L84.8223 123.491C85.602 122.825 86.2497 122.357 86.7624 122.081C87.2754 121.805 87.8361 121.595 88.4418 121.448C89.0475 121.301 89.7282 121.226 90.4779 121.226C91.4673 121.226 92.34 121.406 93.0987 121.769C93.8574 122.132 94.4451 122.636 94.8648 123.287C95.2848 123.938 95.4948 124.682 95.4948 125.519C95.4948 126.248 95.3658 126.935 95.1108 127.574C94.8528 128.213 94.4571 128.87 93.9204 129.542C93.3837 130.214 92.433 131.171 91.0776 132.416L89.0415 134.336V134.489H95.9445V137.306L95.9385 137.303Z" fill="white"/>
<path d="M108.299 129.378C108.299 132.147 107.846 134.196 106.941 135.525C106.035 136.854 104.638 137.52 102.752 137.52C100.865 137.52 99.5458 136.833 98.6194 135.459C97.6897 134.085 97.228 132.06 97.228 129.378C97.228 126.696 97.6807 124.521 98.5834 123.195C99.4858 121.869 100.877 121.206 102.755 121.206C104.632 121.206 105.963 121.899 106.899 123.288C107.834 124.674 108.302 126.705 108.302 129.381L108.299 129.378ZM100.554 129.378C100.554 131.322 100.722 132.714 101.057 133.557C101.393 134.4 101.957 134.82 102.752 134.82C103.546 134.82 104.095 134.394 104.443 133.542C104.791 132.69 104.961 131.301 104.961 129.378C104.961 127.455 104.788 126.039 104.437 125.187C104.086 124.338 103.525 123.912 102.752 123.912C101.978 123.912 101.402 124.338 101.06 125.187C100.722 126.036 100.551 127.434 100.551 129.378H100.554Z" fill="white"/>
<path d="M120.826 137.303H109.751V134.972L113.728 130.949C114.906 129.743 115.674 128.906 116.037 128.438C116.396 127.973 116.657 127.541 116.816 127.142C116.975 126.746 117.053 126.332 117.053 125.906C117.053 125.27 116.879 124.796 116.528 124.487C116.178 124.175 115.71 124.022 115.125 124.022C114.51 124.022 113.914 124.163 113.338 124.445C112.762 124.727 112.157 125.129 111.53 125.648L109.709 123.491C110.489 122.825 111.137 122.357 111.65 122.081C112.163 121.805 112.723 121.595 113.329 121.448C113.935 121.301 114.615 121.226 115.365 121.226C116.354 121.226 117.227 121.406 117.986 121.769C118.745 122.132 119.332 122.636 119.752 123.287C120.172 123.938 120.382 124.682 120.382 125.519C120.382 126.248 120.253 126.935 119.998 127.574C119.74 128.213 119.344 128.87 118.808 129.542C118.271 130.214 117.32 131.171 115.962 132.416L113.926 134.336V134.489H120.829V137.306L120.826 137.303Z" fill="white"/>
<path d="M133.632 134.017H131.725V137.302H128.453V134.017H121.691V131.686L128.636 121.453H131.725V131.416H133.632V134.017ZM128.453 131.416V128.728C128.453 128.281 128.471 127.63 128.507 126.778C128.543 125.926 128.573 125.431 128.594 125.293H128.507C128.24 125.887 127.92 126.463 127.542 127.027L124.639 131.416H128.453Z" fill="white"/>
</svg>
