<svg xmlns="http://www.w3.org/2000/svg" width="26" height="26" viewBox="0 0 26 26" fill="none">
	<path d="M3.25 9.75016C3.25 9.17553 3.47827 8.62443 3.8846 8.2181C4.29093 7.81177 4.84203 7.5835 5.41667 7.5835H20.5833C21.158 7.5835 21.7091 7.81177 22.1154 8.2181C22.5217 8.62443 22.75 9.17553 22.75 9.75016V19.5002C22.75 20.0748 22.5217 20.6259 22.1154 21.0322C21.7091 21.4386 21.158 21.6668 20.5833 21.6668H5.41667C4.84203 21.6668 4.29093 21.4386 3.8846 21.0322C3.47827 20.6259 3.25 20.0748 3.25 19.5002V9.75016Z" stroke="#4095F6" stroke-width="1.5" stroke-linecap="round" stroke-linejoin="round"/>
	<path d="M8.66663 7.58333V5.41667C8.66663 4.84203 8.8949 4.29093 9.30123 3.8846C9.70756 3.47827 10.2587 3.25 10.8333 3.25H15.1666C15.7413 3.25 16.2924 3.47827 16.6987 3.8846C17.105 4.29093 17.3333 4.84203 17.3333 5.41667V7.58333" stroke="#4095F6" stroke-width="1.5" stroke-linecap="round" stroke-linejoin="round"/>
	<path d="M13 13V13.01" stroke="#4095F6" stroke-width="1.5" stroke-linecap="round" stroke-linejoin="round"/>
	<path d="M3.25 14.0835C6.27421 15.6074 9.61353 16.4012 13 16.4012C16.3865 16.4012 19.7258 15.6074 22.75 14.0835" stroke="#4095F6" stroke-width="1.5" stroke-linecap="round" stroke-linejoin="round"/>
</svg>