<svg xmlns="http://www.w3.org/2000/svg" width="26" height="26" viewBox="0 0 26 26" fill="none">
	<path d="M3.25 13C3.25 14.2804 3.50219 15.5482 3.99217 16.7312C4.48216 17.9141 5.20034 18.9889 6.10571 19.8943C7.01108 20.7997 8.08591 21.5178 9.26884 22.0078C10.4518 22.4978 11.7196 22.75 13 22.75C14.2804 22.75 15.5482 22.4978 16.7312 22.0078C17.9141 21.5178 18.9889 20.7997 19.8943 19.8943C20.7997 18.9889 21.5178 17.9141 22.0078 16.7312C22.4978 15.5482 22.75 14.2804 22.75 13C22.75 11.7196 22.4978 10.4518 22.0078 9.26884C21.5178 8.08591 20.7997 7.01108 19.8943 6.10571C18.9889 5.20034 17.9141 4.48216 16.7312 3.99217C15.5482 3.50219 14.2804 3.25 13 3.25C11.7196 3.25 10.4518 3.50219 9.26884 3.99217C8.08591 4.48216 7.01108 5.20034 6.10571 6.10571C5.20034 7.01108 4.48216 8.08591 3.99217 9.26884C3.50219 10.4518 3.25 11.7196 3.25 13Z" stroke="#4095F6" stroke-width="1.5" stroke-linecap="round" stroke-linejoin="round"/>
	<path d="M9.75 10.8335C9.75 11.6954 10.0924 12.5221 10.7019 13.1316C11.3114 13.7411 12.138 14.0835 13 14.0835C13.862 14.0835 14.6886 13.7411 15.2981 13.1316C15.9076 12.5221 16.25 11.6954 16.25 10.8335C16.25 9.97154 15.9076 9.14489 15.2981 8.5354C14.6886 7.92591 13.862 7.5835 13 7.5835C12.138 7.5835 11.3114 7.92591 10.7019 8.5354C10.0924 9.14489 9.75 9.97154 9.75 10.8335Z" stroke="#4095F6" stroke-width="1.5" stroke-linecap="round" stroke-linejoin="round"/>
	<path d="M6.68188 20.4199C6.95002 19.5275 7.49868 18.7453 8.24648 18.1893C8.99429 17.6333 9.90139 17.3332 10.8332 17.3335H15.1666C16.0996 17.3332 17.0078 17.634 17.7561 18.1913C18.5045 18.7485 19.053 19.5324 19.3201 20.4264" stroke="#4095F6" stroke-width="1.5" stroke-linecap="round" stroke-linejoin="round"/>
</svg>