<svg xmlns="http://www.w3.org/2000/svg" width="26" height="26" viewBox="0 0 26 26" fill="none">
	<path d="M9.75008 5.4165H7.58341C7.00878 5.4165 6.45768 5.64478 6.05135 6.05111C5.64502 6.45743 5.41675 7.00853 5.41675 7.58317V20.5832C5.41675 21.1578 5.64502 21.7089 6.05135 22.1152C6.45768 22.5216 7.00878 22.7498 7.58341 22.7498H18.4167C18.9914 22.7498 19.5425 22.5216 19.9488 22.1152C20.3551 21.7089 20.5834 21.1578 20.5834 20.5832V7.58317C20.5834 7.00853 20.3551 6.45743 19.9488 6.05111C19.5425 5.64478 18.9914 5.4165 18.4167 5.4165H16.2501" stroke="#4095F6" stroke-width="1.5" stroke-linecap="round" stroke-linejoin="round"/>
	<path d="M9.75 5.41667C9.75 4.84203 9.97827 4.29093 10.3846 3.8846C10.7909 3.47827 11.342 3.25 11.9167 3.25H14.0833C14.658 3.25 15.2091 3.47827 15.6154 3.8846C16.0217 4.29093 16.25 4.84203 16.25 5.41667C16.25 5.9913 16.0217 6.5424 15.6154 6.94873C15.2091 7.35506 14.658 7.58333 14.0833 7.58333H11.9167C11.342 7.58333 10.7909 7.35506 10.3846 6.94873C9.97827 6.5424 9.75 5.9913 9.75 5.41667Z" stroke="#4095F6" stroke-width="1.5" stroke-linecap="round" stroke-linejoin="round"/>
	<path d="M9.75 13H16.25" stroke="#4095F6" stroke-width="1.5" stroke-linecap="round" stroke-linejoin="round"/>
	<path d="M9.75 17.3335H16.25" stroke="#4095F6" stroke-width="1.5" stroke-linecap="round" stroke-linejoin="round"/>
</svg>