<svg xmlns="http://www.w3.org/2000/svg" width="26" height="26" viewBox="0 0 26 26" fill="none">
	<path d="M10.8333 5.41667C10.8333 4.84203 11.0615 4.29093 11.4679 3.8846C11.8742 3.47827 12.4253 3.25 12.9999 3.25C13.5746 3.25 14.1257 3.47827 14.532 3.8846C14.9383 4.29093 15.1666 4.84203 15.1666 5.41667C16.4107 6.00495 17.4713 6.92069 18.2346 8.06574C18.998 9.2108 19.4354 10.542 19.4999 11.9167V15.1667C19.5814 15.8402 19.82 16.4851 20.1963 17.0496C20.5726 17.6141 21.0762 18.0824 21.6666 18.4167H4.33325C4.9236 18.0824 5.42721 17.6141 5.80354 17.0496C6.17986 16.4851 6.41839 15.8402 6.49992 15.1667V11.9167C6.56444 10.542 7.00183 9.2108 7.7652 8.06574C8.52857 6.92069 9.58914 6.00495 10.8333 5.41667Z" stroke="#4095F6" stroke-width="1.5" stroke-linecap="round" stroke-linejoin="round"/>
	<path d="M9.75 18.4165V19.4998C9.75 20.3618 10.0924 21.1884 10.7019 21.7979C11.3114 22.4074 12.138 22.7498 13 22.7498C13.862 22.7498 14.6886 22.4074 15.2981 21.7979C15.9076 21.1884 16.25 20.3618 16.25 19.4998V18.4165" stroke="#4095F6" stroke-width="1.5" stroke-linecap="round" stroke-linejoin="round"/>
	<path d="M22.75 7.28758C22.0394 5.74194 21.0075 4.3655 19.7231 3.25" stroke="#4095F6" stroke-width="1.5" stroke-linecap="round" stroke-linejoin="round"/>
	<path d="M3.25 7.28758C3.95996 5.74214 4.99108 4.36572 6.27467 3.25" stroke="#4095F6" stroke-width="1.5" stroke-linecap="round" stroke-linejoin="round"/>
</svg>