<svg xmlns="http://www.w3.org/2000/svg" width="26" height="26" viewBox="0 0 26 26" fill="none">
	<path d="M3.25 22.75H22.75" stroke="#4095F6" stroke-width="1.5" stroke-linecap="round" stroke-linejoin="round"/>
	<path d="M5.41666 22.75V5.41667C5.41666 4.84203 5.64493 4.29093 6.05126 3.8846C6.45759 3.47827 7.00869 3.25 7.58332 3.25H18.4167C18.9913 3.25 19.5424 3.47827 19.9487 3.8846C20.3551 4.29093 20.5833 4.84203 20.5833 5.41667V22.75" stroke="#4095F6" stroke-width="1.5" stroke-linecap="round" stroke-linejoin="round"/>
	<path d="M9.75 22.75V18.4167C9.75 17.842 9.97827 17.2909 10.3846 16.8846C10.7909 16.4783 11.342 16.25 11.9167 16.25H14.0833C14.658 16.25 15.2091 16.4783 15.6154 16.8846C16.0217 17.2909 16.25 17.842 16.25 18.4167V22.75" stroke="#4095F6" stroke-width="1.5" stroke-linecap="round" stroke-linejoin="round"/>
	<path d="M10.8333 9.75H15.1667" stroke="#4095F6" stroke-width="1.5" stroke-linecap="round" stroke-linejoin="round"/>
	<path d="M13 7.5835V11.9168" stroke="#4095F6" stroke-width="1.5" stroke-linecap="round" stroke-linejoin="round"/>
</svg>