<svg xmlns="http://www.w3.org/2000/svg" width="26" height="26" viewBox="0 0 26 26" fill="none">
	<path d="M6.5 4.3335H5.41667C4.84203 4.3335 4.29093 4.56177 3.8846 4.9681C3.47827 5.37443 3.25 5.92553 3.25 6.50016V10.2918C3.25 11.8721 3.87775 13.3876 4.99516 14.505C6.11256 15.6224 7.62809 16.2502 9.20833 16.2502C10.7886 16.2502 12.3041 15.6224 13.4215 14.505C14.5389 13.3876 15.1667 11.8721 15.1667 10.2918V6.50016C15.1667 5.92553 14.9384 5.37443 14.5321 4.9681C14.1257 4.56177 13.5746 4.3335 13 4.3335H11.9167" stroke="#4095F6" stroke-width="1.5" stroke-linecap="round" stroke-linejoin="round"/>
	<path d="M8.66666 16.25C8.66666 17.1036 8.83478 17.9488 9.16144 18.7374C9.4881 19.5261 9.96688 20.2426 10.5705 20.8462C11.174 21.4498 11.8906 21.9286 12.6792 22.2552C13.4678 22.5819 14.3131 22.75 15.1667 22.75C16.0202 22.75 16.8655 22.5819 17.6541 22.2552C18.4427 21.9286 19.1593 21.4498 19.7629 20.8462C20.3664 20.2426 20.8452 19.5261 21.1719 18.7374C21.4985 17.9488 21.6667 17.1036 21.6667 16.25V13" stroke="#4095F6" stroke-width="1.5" stroke-linecap="round" stroke-linejoin="round"/>
	<path d="M11.9167 3.25V5.41667" stroke="#4095F6" stroke-width="1.5" stroke-linecap="round" stroke-linejoin="round"/>
	<path d="M6.5 3.25V5.41667" stroke="#4095F6" stroke-width="1.5" stroke-linecap="round" stroke-linejoin="round"/>
	<path d="M19.5 10.8332C19.5 11.4078 19.7283 11.9589 20.1346 12.3652C20.5409 12.7716 21.092 12.9998 21.6667 12.9998C22.2413 12.9998 22.7924 12.7716 23.1987 12.3652C23.6051 11.9589 23.8333 11.4078 23.8333 10.8332C23.8333 10.2585 23.6051 9.70744 23.1987 9.30111C22.7924 8.89478 22.2413 8.6665 21.6667 8.6665C21.092 8.6665 20.5409 8.89478 20.1346 9.30111C19.7283 9.70744 19.5 10.2585 19.5 10.8332Z" stroke="#4095F6" stroke-width="1.5" stroke-linecap="round" stroke-linejoin="round"/>
</svg>