<svg xmlns="http://www.w3.org/2000/svg" width="26" height="26" viewBox="0 0 26 26" fill="none">
	<path d="M4.3335 5.41683C4.3335 5.12951 4.44763 4.85396 4.6508 4.6508C4.85396 4.44763 5.12951 4.3335 5.41683 4.3335H20.5835C20.8708 4.3335 21.1464 4.44763 21.3495 4.6508C21.5527 4.85396 21.6668 5.12951 21.6668 5.41683V7.5835C21.6668 7.87081 21.5527 8.14636 21.3495 8.34953C21.1464 8.55269 20.8708 8.66683 20.5835 8.66683H5.41683C5.12951 8.66683 4.85396 8.55269 4.6508 8.34953C4.44763 8.14636 4.3335 7.87081 4.3335 7.5835V5.41683Z" stroke="#4095F6" stroke-width="1.5" stroke-linecap="round" stroke-linejoin="round"/>
	<path d="M4.3335 14.0833C4.3335 13.796 4.44763 13.5205 4.6508 13.3173C4.85396 13.1141 5.12951 13 5.41683 13H9.75016C10.0375 13 10.313 13.1141 10.5162 13.3173C10.7194 13.5205 10.8335 13.796 10.8335 14.0833V20.5833C10.8335 20.8707 10.7194 21.1462 10.5162 21.3494C10.313 21.5525 10.0375 21.6667 9.75016 21.6667H5.41683C5.12951 21.6667 4.85396 21.5525 4.6508 21.3494C4.44763 21.1462 4.3335 20.8707 4.3335 20.5833V14.0833Z" stroke="#4095F6" stroke-width="1.5" stroke-linecap="round" stroke-linejoin="round"/>
	<path d="M15.1665 13H21.6665" stroke="#4095F6" stroke-width="1.5" stroke-linecap="round" stroke-linejoin="round"/>
	<path d="M15.1665 17.3335H21.6665" stroke="#4095F6" stroke-width="1.5" stroke-linecap="round" stroke-linejoin="round"/>
	<path d="M15.1665 21.6665H21.6665" stroke="#4095F6" stroke-width="1.5" stroke-linecap="round" stroke-linejoin="round"/>
</svg>