<svg xmlns="http://www.w3.org/2000/svg" width="26" height="26" viewBox="0 0 26 26" fill="none">
	<path d="M3.25 14.0833C3.25 13.796 3.36414 13.5205 3.5673 13.3173C3.77047 13.1141 4.04602 13 4.33333 13H8.66667C8.95398 13 9.22953 13.1141 9.4327 13.3173C9.63586 13.5205 9.75 13.796 9.75 14.0833V20.5833C9.75 20.8707 9.63586 21.1462 9.4327 21.3494C9.22953 21.5525 8.95398 21.6667 8.66667 21.6667H4.33333C4.04602 21.6667 3.77047 21.5525 3.5673 21.3494C3.36414 21.1462 3.25 20.8707 3.25 20.5833V14.0833Z" stroke="#4095F6" stroke-width="1.5" stroke-linecap="round" stroke-linejoin="round"/>
	<path d="M16.25 9.74984C16.25 9.46252 16.3641 9.18697 16.5673 8.98381C16.7705 8.78064 17.046 8.6665 17.3333 8.6665H21.6667C21.954 8.6665 22.2295 8.78064 22.4327 8.98381C22.6359 9.18697 22.75 9.46252 22.75 9.74984V20.5832C22.75 20.8705 22.6359 21.146 22.4327 21.3492C22.2295 21.5524 21.954 21.6665 21.6667 21.6665H17.3333C17.046 21.6665 16.7705 21.5524 16.5673 21.3492C16.3641 21.146 16.25 20.8705 16.25 20.5832V9.74984Z" stroke="#4095F6" stroke-width="1.5" stroke-linecap="round" stroke-linejoin="round"/>
	<path d="M9.75 5.41683C9.75 5.12951 9.86414 4.85396 10.0673 4.6508C10.2705 4.44763 10.546 4.3335 10.8333 4.3335H15.1667C15.454 4.3335 15.7295 4.44763 15.9327 4.6508C16.1359 4.85396 16.25 5.12951 16.25 5.41683V20.5835C16.25 20.8708 16.1359 21.1464 15.9327 21.3495C15.7295 21.5527 15.454 21.6668 15.1667 21.6668H10.8333C10.546 21.6668 10.2705 21.5527 10.0673 21.3495C9.86414 21.1464 9.75 20.8708 9.75 20.5835V5.41683Z" stroke="#4095F6" stroke-width="1.5" stroke-linecap="round" stroke-linejoin="round"/>
	<path d="M4.33325 21.6665H19.4999" stroke="#4095F6" stroke-width="1.5" stroke-linecap="round" stroke-linejoin="round"/>
</svg>