<svg xmlns="http://www.w3.org/2000/svg" width="26" height="26" viewBox="0 0 26 26" fill="none">
	<path d="M5.41675 7.58333C5.41675 8.73261 5.87329 9.83481 6.68595 10.6475C7.49861 11.4601 8.60081 11.9167 9.75008 11.9167C10.8994 11.9167 12.0016 11.4601 12.8142 10.6475C13.6269 9.83481 14.0834 8.73261 14.0834 7.58333C14.0834 6.43406 13.6269 5.33186 12.8142 4.5192C12.0016 3.70655 10.8994 3.25 9.75008 3.25C8.60081 3.25 7.49861 3.70655 6.68595 4.5192C5.87329 5.33186 5.41675 6.43406 5.41675 7.58333Z" stroke="#4095F6" stroke-width="1.5" stroke-linecap="round" stroke-linejoin="round"/>
	<path d="M3.25 22.75V20.5833C3.25 19.4341 3.70655 18.3319 4.5192 17.5192C5.33186 16.7065 6.43406 16.25 7.58333 16.25H11.9167C13.0659 16.25 14.1681 16.7065 14.9808 17.5192C15.7935 18.3319 16.25 19.4341 16.25 20.5833V22.75" stroke="#4095F6" stroke-width="1.5" stroke-linecap="round" stroke-linejoin="round"/>
	<path d="M17.3333 3.39062C18.2654 3.62928 19.0915 4.17138 19.6815 4.93146C20.2715 5.69154 20.5917 6.62636 20.5917 7.58854C20.5917 8.55073 20.2715 9.48554 19.6815 10.2456C19.0915 11.0057 18.2654 11.5478 17.3333 11.7865" stroke="#4095F6" stroke-width="1.5" stroke-linecap="round" stroke-linejoin="round"/>
	<path d="M22.75 22.7501V20.5834C22.7445 19.627 22.4227 18.6993 21.8349 17.9449C21.247 17.1904 20.4261 16.6517 19.5 16.4126" stroke="#4095F6" stroke-width="1.5" stroke-linecap="round" stroke-linejoin="round"/>
</svg>