<svg xmlns="http://www.w3.org/2000/svg" width="39" height="30" viewBox="0 0 39 30" fill="none">
<path d="M8.7139 30C6.09264 30 3.9673 29.0476 2.33787 27.1429C0.779292 25.1648 0 22.6007 0 19.4506C0 15.348 1.16894 11.5385 3.50681 8.02197C5.84469 4.43223 8.74932 1.75824 12.2207 0L12.8583 1.31868C11.3706 2.49084 10.0599 3.99267 8.92643 5.82417C7.79292 7.65567 6.9782 9.92674 6.48229 12.6374L8.7139 13.1868C11.1935 13.7729 13.1063 14.8718 14.4523 16.4835C15.8692 18.022 16.5777 19.8901 16.5777 22.0879C16.5777 24.4322 15.7984 26.337 14.2398 27.8022C12.752 29.2674 10.9101 30 8.7139 30ZM31.1362 30C28.515 30 26.3896 29.0476 24.7602 27.1429C23.2016 25.1648 22.4223 22.6007 22.4223 19.4506C22.4223 15.348 23.5913 11.5385 25.9292 8.02197C28.267 4.43223 31.1717 1.75824 34.6431 0L35.2807 1.31868C33.7929 2.49084 32.4823 3.99267 31.3488 5.82417C30.2153 7.65567 29.4005 9.92674 28.9046 12.6374L31.1362 13.1868C33.6158 13.7729 35.5286 14.8718 36.8747 16.4835C38.2916 18.022 39 19.8901 39 22.0879C39 24.4322 38.2207 26.337 36.6621 27.8022C35.1744 29.2674 33.3324 30 31.1362 30Z" fill="#2EAB1A"/>
</svg>