<svg xmlns="http://www.w3.org/2000/svg" width="15" height="14" viewBox="0 0 15 14" fill="none">
<path d="M6.71294 0.441264C6.79317 0.307001 6.90809 0.195599 7.04624 0.118173C7.18439 0.0407457 7.34094 0 7.50027 0C7.65961 0 7.81616 0.0407457 7.95431 0.118173C8.09246 0.195599 8.20738 0.307001 8.2876 0.441264L10.3252 3.85258L14.2822 4.6887C14.4379 4.72169 14.582 4.79389 14.7001 4.89811C14.8182 5.00233 14.9062 5.13493 14.9554 5.28268C15.0046 5.43043 15.0133 5.58818 14.9805 5.7402C14.9477 5.89222 14.8746 6.03319 14.7685 6.14907L12.0712 9.09327L12.4794 13.0215C12.4955 13.1762 12.4697 13.3323 12.4046 13.4742C12.3395 13.6161 12.2374 13.7389 12.1084 13.8303C11.9795 13.9217 11.8282 13.9784 11.6697 13.995C11.5111 14.0115 11.351 13.9872 11.2051 13.9244L7.50027 12.3318L3.79545 13.9244C3.64959 13.9872 3.4894 14.0115 3.33089 13.995C3.17238 13.9784 3.02108 13.9217 2.89211 13.8303C2.76314 13.7389 2.66101 13.6161 2.59592 13.4742C2.53082 13.3323 2.50504 13.1762 2.52114 13.0215L2.92939 9.09327L0.232055 6.14978C0.125785 6.03391 0.0525401 5.89288 0.0196314 5.74077C-0.0132772 5.58865 -0.00469807 5.43078 0.0445124 5.28292C0.0937229 5.13505 0.181843 5.00236 0.300076 4.89809C0.418308 4.79382 0.562516 4.72162 0.718304 4.6887L4.67536 3.85258L6.71294 0.441264Z" fill="#FAA500"/>
</svg>