<svg xmlns="http://www.w3.org/2000/svg" width="218" height="180" fill="none"><path fill="#002E47" d="M195.889 79.896c-10.543 43.8-52.134 82.404-87.22 100.104-35.09-17.7-76.681-56.304-87.221-100.104C14.4 50.577 16.899 19.434 21.318 0H196.02c4.419 19.434 6.915 50.577-.13 79.896"/><path fill="#fff" d="m108.669 173.614-.381-.204c-17.573-9.375-35.074-23.091-49.275-38.625C42.57 116.8 31.488 97.36 26.966 78.571c-5.188-21.585-5.623-48.588-1.167-72.234l.126-.66h165.488l.126.66c4.459 23.646 4.021 50.649-1.167 72.234-4.521 18.789-15.605 38.226-32.047 56.211-14.2 15.534-31.702 29.25-49.275 38.625l-.381.204zM27.269 7.297c-4.285 23.274-3.816 49.722 1.272 70.893 4.459 18.522 15.41 37.716 31.666 55.497 13.976 15.288 31.174 28.8 48.459 38.085 17.285-9.285 34.48-22.797 48.459-38.085 16.259-17.784 27.208-36.975 31.666-55.497 5.089-21.174 5.557-47.622 1.272-70.896H27.269z"/><path fill="#E54747" d="M0 99.755 11.236 64.08h26.07L26.07 99.755z"/><path fill="#002E47" d="m10.535 107.868 11.24-35.676L37.3 64.083 26.065 99.759z" opacity=".4"/><path fill="#E54747" d="m217.32 80.294-11.236 35.676h-26.07l11.236-35.676z"/><path fill="#002E47" d="m206.78 72.191-11.24 35.676-15.526 8.106 11.236-35.676z" opacity=".4"/><path fill="#FF9D28" d="m206.783 72.191-11.239 35.676H10.541l11.24-35.676z"/><path fill="#002E47" d="M52.511 93.723q-.355 2.894-2.466 4.503-2.116 1.611-5.542 1.611-1.435-.001-2.673-.32-1.237-.32-2.088-.934l.558-4.563q1.013.69 2.367 1.158 1.358.472 2.505.471.964 0 1.51-.405c.363-.27.576-.65.636-1.149.03-.234 0-.453-.075-.657a2.2 2.2 0 0 0-.37-.612q-.247-.306-1.374-1.35c-.918-.816-1.554-1.653-1.911-2.502q-.536-1.277-.348-2.802a6.3 6.3 0 0 1 1.23-3.069q1.022-1.364 2.67-2.112 1.651-.75 3.58-.75 3.114 0 5.437 1.395l-2.235 3.87q-2.089-1.147-3.655-1.146-.834 0-1.33.366-.493.365-.581 1.068-.077.64.29 1.191.369.556 1.483 1.48 1.4 1.133 1.99 2.384.589 1.252.392 2.868zm15.766 5.853h-5.098l2.58-7.77h-4.512l-2.607 7.77h-5.098l6.36-19.062H65l-2.325 7.065h4.537l2.325-7.065h5.112l-6.375 19.062zm17.441-19.362q3.39 0 5.038 1.935 1.647 1.937 1.224 5.403-.422 3.468-2.073 6.342-1.647 2.874-4.12 4.407-2.47 1.534-5.481 1.533c-2.337 0-4.066-.648-5.179-1.944q-1.674-1.943-1.251-5.397.422-3.456 2.118-6.348 1.697-2.896 4.198-4.413c1.668-1.011 3.507-1.518 5.526-1.518m1.105 7.392q.18-1.486-.343-2.328-.522-.84-1.71-.84-1.29 0-2.508 1.095-1.216 1.094-2.097 3.012a13.1 13.1 0 0 0-1.126 3.924q-.386 3.155 2.224 3.156 1.239 0 2.433-1.083c.795-.723 1.473-1.695 2.025-2.92.555-1.223.922-2.564 1.099-4.013h.003zM98.63 92.64l-2.323 6.936H91.21l6.36-19.062h5.047q3.285 0 4.873 1.305 1.587 1.305 1.266 3.924-.248 2.034-1.359 3.546-1.112 1.513-3.034 2.307l2.305 7.98h-5.23l-1.857-6.936zm1.296-3.873h.666q1.239 0 2.055-.711.819-.71.972-1.99.1-.81-.3-1.232-.399-.423-1.257-.423h-.69l-1.446 4.353zm15.482 10.809h-5.098l4.906-14.85h-4.135l1.416-4.212h13.406l-1.44 4.212h-4.147l-4.905 14.85zm6.988 0 6.361-19.062h5.097l-4.965 14.9h6.058l-1.396 4.159h-11.155zm13.877 0 6.361-19.062h5.175l-6.36 19.062zm21.998-5.853q-.355 2.894-2.466 4.503-2.116 1.611-5.541 1.611-1.437-.001-2.674-.32-1.237-.32-2.088-.934l.558-4.563q1.012.69 2.367 1.158 1.359.472 2.506.471.964 0 1.509-.405c.363-.27.576-.65.636-1.149q.043-.351-.075-.657a2.3 2.3 0 0 0-.369-.612q-.248-.306-1.374-1.35c-.918-.816-1.554-1.653-1.912-2.502q-.536-1.277-.348-2.802a6.3 6.3 0 0 1 1.231-3.069q1.022-1.364 2.67-2.112 1.65-.75 3.579-.75 3.114 0 5.437 1.395l-2.235 3.87q-2.09-1.147-3.655-1.146-.833 0-1.329.366-.494.365-.582 1.068-.077.64.291 1.191.368.556 1.482 1.48 1.4 1.133 1.989 2.384.59 1.252.393 2.868zm8.817 5.853h-5.097l4.905-14.85h-4.134l1.416-4.212h13.406l-1.44 4.212h-4.147l-4.906 14.85z"/><path fill="#FF9D28" d="m31.905 34.908 13.922.003h8.464v-8.508z"/><path fill="#68C5ED" d="M54.297 26.405v30.039l10.574-34.056z"/><path fill="#044D80" d="M54.29 34.912h-8.465l8.464 21.531z"/><path fill="#E54747" d="m31.905 34.906 16.091 5.526-2.17-5.523z"/><path fill="#fff" d="M83.19 48.533a4 4 0 0 1-.612.465 7 7 0 0 1-1.12.56 9.7 9.7 0 0 1-1.686.484q-.998.201-2.283.2-2.484 0-4.294-.81-1.809-.809-2.988-2.255-1.18-1.448-1.731-3.423-.553-1.975-.552-4.338 0-2.363.597-4.371.598-2.006 1.794-3.468a8.26 8.26 0 0 1 2.988-2.286q1.796-.825 4.216-.825a9.7 9.7 0 0 1 2.16.219q.966.216 1.687.513.72.297 1.197.62.477.329.72.544.275.248.474.59.198.343.198.748 0 .622-.46 1.245a9.3 9.3 0 0 1-1.01 1.152 13 13 0 0 0-.828-.762 5.7 5.7 0 0 0-1.027-.684 6.7 6.7 0 0 0-1.287-.498 6 6 0 0 0-1.611-.201q-1.563 0-2.622.639a5.1 5.1 0 0 0-1.702 1.665q-.643 1.026-.92 2.349a13.2 13.2 0 0 0-.277 2.69q0 1.464.276 2.8.275 1.337.951 2.364a5.15 5.15 0 0 0 1.765 1.65q1.088.62 2.712.62.859.001 1.578-.218a6.3 6.3 0 0 0 2.239-1.182q.415-.343.69-.591.183.216.429.528c.162.207.318.426.459.654q.216.342.369.684t.153.62q0 .406-.153.685a3 3 0 0 1-.492.62M98.99 46.15q.001 2.469.709 3.6a6 6 0 0 1-1.032.311 5 5 0 0 1-1.003.093q-1.111 0-1.68-.438-.57-.436-.726-1.25-.68.72-1.788 1.22-1.11.5-2.716.501-.832 0-1.665-.234a4.3 4.3 0 0 1-1.512-.765q-.679-.532-1.11-1.419c-.288-.594-.432-1.314-.432-2.169q0-1.591.756-2.589a5.4 5.4 0 0 1 1.896-1.575 8.6 8.6 0 0 1 2.47-.795q1.326-.22 2.436-.282.37-.03.726-.03h.663v-.57q0-1.2-.633-1.71-.635-.505-2.052-.507-1.329 0-2.359.438-1.034.438-2.019 1.002a4.6 4.6 0 0 1-.693-1.173c-.174-.426-.261-.747-.261-.954q0-.436.477-.846.478-.406 1.311-.735a10.5 10.5 0 0 1 1.911-.53q1.079-.205 2.284-.205 1.666 0 2.823.345 1.156.346 1.881 1.065.725.72 1.032 1.8c.204.72.31 1.56.31 2.52v5.883zm-3.948-3.63h-.432q-.216 0-.432.03-.77.062-1.527.188a4.4 4.4 0 0 0-1.342.438q-.584.314-.957.813-.369.5-.369 1.284 0 .877.492 1.485.495.611 1.666.61.587 0 1.11-.157t.924-.408c.267-.168.477-.348.633-.549q.23-.297.23-.546v-3.192h.004zm11.626-6.166q.491-.594 1.536-1.206 1.045-.61 2.643-.609 1.139 0 2.169.39a4.8 4.8 0 0 1 1.83 1.266q.8.877 1.276 2.316.477 1.44.477 3.537 0 2.44-.556 4.02-.554 1.579-1.428 2.505-.877.922-1.953 1.3a6.5 6.5 0 0 1-2.151.374q-.892 0-1.554-.204a6.2 6.2 0 0 1-1.122-.453q-.46-.25-.708-.5a2.7 2.7 0 0 1-.306-.346v7.692h-4.195V34.974a7 7 0 0 1 .807-.11q.248-.016.591-.016 1.025 0 1.74.345t.904 1.158m5.553 5.79q0-.939-.153-1.752-.152-.813-.507-1.407a2.47 2.47 0 0 0-.951-.924q-.6-.328-1.455-.327-1.288 0-1.794.501-.505.501-.507 1.095v6.636q.243.252.873.594.63.346 1.458.345 1.564 0 2.301-1.25.737-1.254.735-3.505m7.617 5.378a5.6 5.6 0 0 1-.279-1.314 15 15 0 0 1-.063-1.377v-14.52q.215-.032.462-.064a6.5 6.5 0 0 1 .954-.062q.493 0 .987.093a2.3 2.3 0 0 1 .894.375q.4.283.648.768.247.485.246 1.266v2.223h4.318v3.162h-4.318v6.674q-.001 2.185 1.759 2.185.433 0 .816-.142a4.7 4.7 0 0 0 .693-.312 3.7 3.7 0 0 0 .54-.36q.23-.187.324-.281.464.69.708 1.19.247.504.246.945 0 .411-.324.808t-.909.726-1.419.536a7.5 7.5 0 0 1-1.822.208c-1.275 0-2.268-.253-2.976-.75a4 4 0 0 1-1.497-1.971m18.817-.413a5 5 0 0 0 1.363-.17 5.3 5.3 0 0 0 1.053-.424c.309-.168.579-.348.804-.549q.34-.296.618-.549.369.468.774 1.206c.267.492.402.891.402 1.206q0 .69-.771 1.251-.648.5-1.836.861-1.189.36-2.791.36-1.449 0-2.853-.375a6.25 6.25 0 0 1-2.499-1.314c-.729-.627-1.32-1.464-1.773-2.52q-.679-1.579-.678-3.99 0-1.97.6-3.396.602-1.423 1.605-2.364a6.3 6.3 0 0 1 2.268-1.377 7.9 7.9 0 0 1 2.592-.438q1.726 0 2.932.55 1.202.547 1.959 1.47.754.923 1.095 2.111a9.1 9.1 0 0 1 .339 2.505v.438q0 .252-.015.531l-.03.55a4 4 0 0 1-.045.422h-9.1q.121 1.723 1.053 2.865.928 1.143 2.94 1.143m1.408-6.354q-.001-1.502-.574-2.442-.575-.94-2.064-.939-1.272 0-2.031.891-.76.892-.759 2.487h5.431-.003zm11.083-4.335q.185-.28.493-.62a3.4 3.4 0 0 1 .756-.622q.446-.28.987-.465a3.6 3.6 0 0 1 1.158-.186q.37 0 .786.063t.771.234.57.465q.216.297.216.73 0 .682-.339 1.568a13 13 0 0 1-.678 1.512 4.6 4.6 0 0 0-1.05-.672q-.526-.234-1.233-.234-.956.002-1.605.564c-.433.378-.649.825-.649 1.35V50.25h-4.194V34.98a7 7 0 0 1 .801-.11q.248-.016.585-.016.985 0 1.713.387.725.388.909 1.194m11.929-.003q.184-.28.495-.62a3.4 3.4 0 0 1 .756-.622q.446-.28.987-.465a3.6 3.6 0 0 1 1.158-.186q.37 0 .786.063t.771.234.57.465q.216.297.217.73-.001.682-.34 1.568a13 13 0 0 1-.678 1.512 4.6 4.6 0 0 0-1.05-.672q-.526-.234-1.233-.234-.956.002-1.605.564c-.432.378-.648.825-.648 1.35V50.25h-4.195V34.98a7 7 0 0 1 .801-.11q.248-.016.585-.016.988 0 1.714.387.725.388.909 1.194m20.026 9.715q.001 2.469.709 3.6a6 6 0 0 1-1.033.311 5 5 0 0 1-1.002.093q-1.112 0-1.68-.438-.57-.436-.726-1.25-.68.72-1.788 1.22-1.11.5-2.716.501-.833 0-1.665-.234a4.3 4.3 0 0 1-1.512-.765q-.679-.532-1.11-1.419c-.288-.594-.432-1.314-.432-2.169q0-1.591.756-2.589a5.4 5.4 0 0 1 1.896-1.575 8.6 8.6 0 0 1 2.466-.795q1.327-.22 2.437-.282.37-.03.726-.03h.663v-.57q0-1.2-.633-1.71-.634-.505-2.052-.507-1.329 0-2.359.438-1.034.438-2.019 1.002a4.6 4.6 0 0 1-.693-1.173c-.174-.426-.261-.747-.261-.954q0-.436.477-.846.478-.406 1.311-.735a10.5 10.5 0 0 1 1.911-.53q1.081-.205 2.284-.205 1.666 0 2.823.345 1.156.346 1.881 1.065.725.72 1.032 1.8t.309 2.52v5.883zm-3.948-3.63h-.432q-.216 0-.432.03-.77.062-1.527.188a4.4 4.4 0 0 0-1.342.438q-.584.314-.957.813-.369.5-.369 1.284 0 .877.495 1.485.495.611 1.666.61.587 0 1.11-.157t.924-.408c.267-.168.477-.348.633-.549q.23-.297.231-.546v-3.192zm-83.205 94.783H84.864v-2.331l3.977-4.023q1.766-1.809 2.309-2.511.54-.698.78-1.296.236-.596.236-1.236 0-.955-.525-1.419-.525-.466-1.403-.465a4 4 0 0 0-1.787.423q-.869.424-1.808 1.203l-1.82-2.157q1.17-.997 1.94-1.41a7 7 0 0 1 1.679-.633 8.7 8.7 0 0 1 2.036-.222q1.484 0 2.62.543 1.138.543 1.767 1.518.63.976.63 2.232-.001 1.095-.384 2.055-.386.96-1.19 1.968c-.537.672-1.488 1.629-2.843 2.874l-2.037 1.92v.153h6.904v2.817zm12.36-7.925q0 4.154-1.358 6.147-1.36 1.994-4.189 1.995c-1.887 0-3.206-.687-4.133-2.061-.93-1.374-1.391-3.399-1.391-6.081s.453-4.857 1.355-6.183q1.355-1.989 4.172-1.989c1.877 0 3.208.693 4.144 2.082q1.403 2.079 1.403 6.093zm-7.745 0q0 2.915.503 4.179t1.695 1.263c.794 0 1.343-.426 1.691-1.278s.518-2.241.518-4.164-.173-3.339-.524-4.191q-.526-1.274-1.685-1.275c-.774 0-1.35.426-1.692 1.275q-.508 1.274-.509 4.191zm20.272 7.925h-11.075v-2.331l3.977-4.023q1.766-1.809 2.309-2.511.54-.698.779-1.296.238-.596.237-1.236 0-.955-.525-1.419-.525-.466-1.403-.465a4 4 0 0 0-1.787.423q-.866.424-1.808 1.203l-1.821-2.157q1.17-.997 1.941-1.41a7 7 0 0 1 1.679-.633 8.7 8.7 0 0 1 2.036-.222q1.483 0 2.621.543t1.766 1.518q.63.976.63 2.232 0 1.095-.384 2.055-.386.96-1.19 1.968-.807 1.007-2.846 2.874l-2.036 1.92v.153h6.903v2.817zm12.806-3.286h-1.907v3.285h-3.272v-3.285h-6.762v-2.331l6.945-10.233h3.089v9.963h1.907zm-5.179-2.601v-2.688q0-.671.054-1.95.055-1.278.087-1.485h-.087q-.4.89-.965 1.734l-2.903 4.389z"/></svg>